<svg width="40" height="40" viewBox="0 0 40 40" fill="none" xmlns="http://www.w3.org/2000/svg">
  <!-- Main circle with gradient -->
  <circle cx="20" cy="20" r="20" fill="url(#eventraGradient)"/>
  
  <!-- Stylized 'e' shape -->
  <path d="M11 13C11 13 17 13 23 13C23 15 23 15 23 15H15C15 15 15 17 15 17H21C21 19 21 19 21 19H15C15 19 15 21 15 21H23C23 23 23 23 23 23C23 23 17 23 11 23C11 23 11 18 11 18C11 18 11 13 11 13Z" fill="white"/>
  
  <!-- Bottom right notch for the 'a' -->
  <path d="M29 20C29 23.866 25.866 27 22 27V20H29Z" fill="white"/>
  
  <!-- Define gradient to match new logo -->
  <defs>
    <linearGradient id="eventraGradient" x1="0" y1="0" x2="40" y2="40" gradientUnits="userSpaceOnUse">
      <stop offset="0" stop-color="#38B2AC"/>  <!-- Teal -->
      <stop offset="0.5" stop-color="#4299E1"/> <!-- Blue -->
      <stop offset="1" stop-color="#805AD5"/>  <!-- Purple -->
    </linearGradient>
  </defs>
</svg> 