<svg width="32" height="32" viewBox="0 0 32 32" fill="none" xmlns="http://www.w3.org/2000/svg">
  <!-- Main circle with gradient -->
  <circle cx="16" cy="16" r="16" fill="url(#eventraGradient)"/>
  
  <!-- Simplified 'e' shape for favicon size -->
  <path d="M9 11C9 11 14 11 19 11C19 13 19 13 19 13H12C12 13 12 15 12 15H17C17 17 17 17 17 17H12C12 17 12 19 12 19H19C19 21 19 21 19 21C19 21 14 21 9 21C9 21 9 16 9 16C9 16 9 11 9 11Z" fill="white"/>
  
  <!-- Simplified 'a' notch -->
  <path d="M23 16C23 19.5 20 22 17 22V16H23Z" fill="white"/>
  
  <!-- Define gradient to match new logo -->
  <defs>
    <linearGradient id="eventraGradient" x1="0" y1="0" x2="32" y2="32" gradientUnits="userSpaceOnUse">
      <stop offset="0" stop-color="#38B2AC"/>  <!-- Teal -->
      <stop offset="0.5" stop-color="#4299E1"/> <!-- Blue -->
      <stop offset="1" stop-color="#805AD5"/>  <!-- Purple -->
    </linearGradient>
  </defs>
</svg> 